<svg version="1.2" xmlns="http://www.w3.org/2000/svg" viewBox="0 0 1540 1540" width="32px" height="32px">
	<path id="Layer" fill-rule="evenodd" class="s0" d="m770.6 0.4c425 0 770.7 341.2 770.7 760.2-3 341.3-179.5 591.9-453.6 695.7-9.6 3.7-18.7 4.4-31.6 4.4-9.9 0-19.8-1.8-29.3-5.1-9.6-3-18.8-7.7-26.8-14-8.1-5.9-15.1-12.8-21-21.3-5.8-8-10.2-17.2-13.5-26.7q-2.6-8.9-3.7-17.7-1.1-9.1-0.4-18.3 1.1-9.2 3.7-17.6 2.6-8.8 7-16.9c11.4-21.6 31.5-36 54.3-45.5 141.6-68.6 327-238.9 327-517 0-316.6-261.3-574.6-582.8-574.6-321.1 0-582.4 258-582.4 574.6-2.9 187.1 104.6 409.1 318.9 514.4 22.4 7 41.8 23.5 52.9 45.9 11.3 22 13.5 47 5.8 70.8-4 11.4-10.3 22.4-18.3 31.6-8.1 9.1-18 16.9-29 22.4-11 5.5-22.8 8.8-35.2 9.5-12.2 1.1-24.6-0.4-36.4-4.4-252.5-108.2-445.5-370.2-446.6-690.2-0.4-49.5 4.4-98.7 13.6-147.1 9.5-48.4 23.8-95.8 42.6-141.3 19-45.8 42.2-89.5 69.7-130.2 27.5-41.1 59.1-79.3 93.9-114.1 36-36 75.6-68.7 117.8-96.9 42.6-28.3 87.7-52.5 134.7-71.9 47.4-19.5 96.2-34.1 146.1-44.1 50.2-9.9 100.9-14.6 151.9-14.6zm-2.6 351.5c238.6 0 432.7 188.2 432.7 419.4 0 110-47 218.6-128.8 297.9l-2.6 2.2c-9.1 6.2-19.1 10.6-29.7 13.6-10.6 2.5-21.7 3.3-32.7 2.2-11-1.5-21.6-4.4-31.2-9.6-9.9-4.7-18.7-11.3-26.4-19.4l-7-8.4c-27.8-39.3-11-93.2 19.1-124.1 38.9-45.5 56.5-93.5 56.9-154.4 0-133.2-112.3-241.5-250.3-241.5-138 0-250.3 108.3-250.3 241.5 4.5 79.6 16.9 100.5 52.2 148.6 33.4 41.8 37.8 86.2 11.3 120.3-29.7 38.9-86.9 47.3-126.9 18.4l-3-2.6c-70.1-74.9-111.9-145.3-115.9-284 0-231.9 194.1-420.1 432.6-420.1z" fill="#f7f7f7"/>
</svg>